# xmcd
#
# Track frame offsets: 
#        150
#        18831
#        37056
#        57503
#        73694
#        95176
#        112624
#        128507
#        142600
#        155848
#        164547
#        187229
#        201187
#
# Disc length: 2895 seconds
#
# Revision: 0
# Processed by: cddbd v1.5.2PL0 Copyright (c) Steve Scherf et al.
# Submitted via: ExactAudioCopy v0.95a4
#
DISCID=b70b4d0d
DTITLE=Scrapomatic - Sidewalk Caesars
DYEAR=2008
DGENRE=Blues
TTITLE0=He Called My Name
TTITLE1=Drink House
TTITLE2=Killing Yourself On Purpose
TTITLE3=I Want The Truth
TTITLE4=Remember This Day
TTITLE5=Long Gone
TTITLE6=Hook, Line And Sinker
TTITLE7=The Fire Next Time
TTITLE8=The Old Whiskey Show
TTITLE9=Drunken Spree
TTITLE10=Long-Haried State
TTITLE11=I Just Wanna Hang Around With You
TTITLE12=Good Luck With Your Impossible Dream
EXTD=
EXTT0=
EXTT1=
EXTT2=
EXTT3=
EXTT4=
EXTT5=
EXTT6=
EXTT7=
EXTT8=
EXTT9=
EXTT10=
EXTT11=
EXTT12=
PLAYORDER=
